<svg width="16" height="16" viewBox="0 0 16 16" fill="none" xmlns="http://www.w3.org/2000/svg">
<g id="fi-rr-chat-arrow-grow" clip-path="url(#clip0_80_36943)">
<path id="Vector" d="M14.9997 2.65063H12.9423C12.8105 2.65066 12.6816 2.68978 12.572 2.76303C12.4624 2.83629 12.377 2.9404 12.3265 3.0622C12.2761 3.184 12.2629 3.31802 12.2886 3.44732C12.3143 3.57662 12.3778 3.6954 12.471 3.78863L13.195 4.51263L10.8043 6.90264C10.6773 7.02403 10.5084 7.09178 10.3327 7.09178C10.1569 7.09178 9.98801 7.02403 9.86099 6.90264L9.74765 6.78863C9.36673 6.42468 8.86016 6.22158 8.33332 6.22158C7.80648 6.22158 7.29991 6.42468 6.91899 6.78863L3.51899 10.1886C3.39372 10.3143 3.32348 10.4845 3.32373 10.6619C3.32398 10.8393 3.3947 11.0094 3.52032 11.1346C3.64595 11.2599 3.81619 11.3301 3.9936 11.3299C4.17101 11.3296 4.34105 11.2589 4.46632 11.1333L7.86632 7.7333C7.99327 7.61175 8.16223 7.5439 8.33799 7.5439C8.51374 7.5439 8.68271 7.61175 8.80965 7.7333L8.92299 7.8473C9.30407 8.21095 9.81057 8.41384 10.3373 8.41384C10.8641 8.41384 11.3706 8.21095 11.7517 7.8473L14.1423 5.45664L14.8663 6.18063C14.9599 6.27233 15.0784 6.33444 15.207 6.3592C15.3356 6.38396 15.4687 6.37027 15.5896 6.31985C15.7105 6.26942 15.8139 6.1845 15.8868 6.07568C15.9597 5.96686 15.999 5.83896 15.9997 5.70797V3.65063C15.9997 3.38542 15.8943 3.13106 15.7068 2.94353C15.5192 2.75599 15.2649 2.65063 14.9997 2.65063Z" fill="#0D6EFD"/>
<path id="Vector_2" d="M15.3333 14.6507H3.33333C2.8029 14.6507 2.29419 14.44 1.91912 14.0649C1.54405 13.6898 1.33333 13.1811 1.33333 12.6507V0.666667C1.33333 0.489856 1.2631 0.320286 1.13807 0.195262C1.01305 0.0702379 0.843478 0 0.666667 0C0.489856 0 0.320286 0.0702379 0.195262 0.195262C0.0702379 0.320286 0 0.489856 0 0.666667L0 12.6507C0.00105857 13.5344 0.352588 14.3816 0.97748 15.0065C1.60237 15.6314 2.4496 15.9829 3.33333 15.984H15.3333C15.5101 15.984 15.6797 15.9138 15.8047 15.7887C15.9298 15.6637 16 15.4941 16 15.3173C16 15.1405 15.9298 14.971 15.8047 14.8459C15.6797 14.7209 15.5101 14.6507 15.3333 14.6507Z" fill="#0D6EFD"/>
</g>
<defs>
<clipPath id="clip0_80_36943">
<rect width="16" height="16" fill="white"/>
</clipPath>
</defs>
</svg>
