<svg width="20" height="21" viewBox="0 0 20 21"  xmlns="http://www.w3.org/2000/svg">
<g clip-path="url(#clip0_21_2958)">
<path d="M20 19.2876C20 19.6191 19.8683 19.9371 19.6339 20.1715C19.3995 20.4059 19.0815 20.5376 18.75 20.5376H1.25C0.918479 20.5376 0.600537 20.4059 0.366117 20.1715C0.131696 19.9371 0 19.6191 0 19.2876C0 18.9561 0.131696 18.6381 0.366117 18.4037C0.600537 18.1693 0.918479 18.0376 1.25 18.0376H18.75C19.0815 18.0376 19.3995 18.1693 19.6339 18.4037C19.8683 18.6381 20 18.9561 20 19.2876ZM0.308333 8.32177C0.0897904 7.92009 -0.0155649 7.46659 0.00351503 7.0097C0.022595 6.55281 0.165394 6.10968 0.416667 5.72761C0.79246 5.1503 1.30295 4.67299 1.90417 4.33677L7.87 1.08094C8.52281 0.722791 9.2554 0.535034 10 0.535034C10.7446 0.535034 11.4772 0.722791 12.13 1.08094L18.0967 4.33677C18.6973 4.67279 19.2074 5.14947 19.5833 5.72594C19.8353 6.10795 19.9787 6.55122 19.9984 7.0084C20.0181 7.46559 19.9132 7.91954 19.695 8.32177C19.4808 8.72248 19.1656 9.06021 18.7805 9.30141C18.3955 9.54261 17.954 9.67891 17.5 9.69677V13.8709H17.9167C18.2482 13.8709 18.5661 14.0026 18.8006 14.2371C19.035 14.4715 19.1667 14.7894 19.1667 15.1209C19.1667 15.4525 19.035 15.7704 18.8006 16.0048C18.5661 16.2392 18.2482 16.3709 17.9167 16.3709H2.08333C1.75181 16.3709 1.43387 16.2392 1.19945 16.0048C0.965029 15.7704 0.833333 15.4525 0.833333 15.1209C0.833333 14.7894 0.965029 14.4715 1.19945 14.2371C1.43387 14.0026 1.75181 13.8709 2.08333 13.8709H2.5V9.69677C2.04657 9.67834 1.60581 9.54177 1.2214 9.3006C0.836978 9.05943 0.522233 8.72201 0.308333 8.32177V8.32177ZM5 13.8709H6.66667V9.70427H5V13.8709ZM9.16667 9.70427V13.8709H10.8333V9.70427H9.16667ZM15 13.8709V9.70427H13.3333V13.8709H15ZM2.5 7.11011C2.50501 7.13577 2.5185 7.159 2.5383 7.17607C2.55809 7.19315 2.58305 7.20308 2.60917 7.20427H17.3908C17.417 7.2023 17.4417 7.19188 17.4614 7.17459C17.4811 7.15731 17.4947 7.13409 17.5 7.10844C17.348 6.87129 17.1421 6.67341 16.8992 6.53094L10.9325 3.27594C10.6469 3.11933 10.3265 3.03724 10.0008 3.03724C9.67515 3.03724 9.35472 3.11933 9.06917 3.27594L3.10167 6.53094C2.85731 6.67261 2.65088 6.87133 2.5 7.11011Z" />
</g>
<defs>
<clipPath id="clip0_21_2958">
<rect width="20" height="20"  transform="translate(0 0.537598)"/>
</clipPath>
</defs>
</svg>
