<svg width="20" height="21" viewBox="0 0 20 21"  xmlns="http://www.w3.org/2000/svg">
<g clip-path="url(#clip0_21_2950)">
<path d="M14.1667 10.9543C14.1667 11.2858 14.0351 11.6037 13.8006 11.8382C13.5662 12.0726 13.2483 12.2043 12.9167 12.2043H7.08342C6.75189 12.2043 6.43395 12.0726 6.19953 11.8382C5.96511 11.6037 5.83342 11.2858 5.83342 10.9543C5.83342 10.6228 5.96511 10.3048 6.19953 10.0704C6.43395 9.83598 6.75189 9.70428 7.08342 9.70428H12.9167C13.2483 9.70428 13.5662 9.83598 13.8006 10.0704C14.0351 10.3048 14.1667 10.6228 14.1667 10.9543ZM10.4167 13.8709H7.08342C6.75189 13.8709 6.43395 14.0026 6.19953 14.2371C5.96511 14.4715 5.83342 14.7894 5.83342 15.1209C5.83342 15.4525 5.96511 15.7704 6.19953 16.0048C6.43395 16.2393 6.75189 16.3709 7.08342 16.3709H10.4167C10.7483 16.3709 11.0662 16.2393 11.3006 16.0048C11.5351 15.7704 11.6667 15.4525 11.6667 15.1209C11.6667 14.7894 11.5351 14.4715 11.3006 14.2371C11.0662 14.0026 10.7483 13.8709 10.4167 13.8709ZM18.3334 7.33512V15.9543C18.3321 17.1695 17.8488 18.3345 16.9895 19.1937C16.1303 20.053 14.9653 20.5363 13.7501 20.5376H6.25008C5.03491 20.5363 3.86989 20.053 3.01064 19.1937C2.15138 18.3345 1.66807 17.1695 1.66675 15.9543V5.12095C1.66807 3.90578 2.15138 2.74076 3.01064 1.88151C3.86989 1.02225 5.03491 0.53894 6.25008 0.537616H11.5359C12.1381 0.535899 12.7346 0.653674 13.2909 0.88412C13.8472 1.11457 14.3522 1.4531 14.7767 1.88012L16.9909 4.09428C17.4179 4.51888 17.7563 5.02394 17.9868 5.58023C18.2172 6.13652 18.335 6.73299 18.3334 7.33512ZM15.8334 15.9543V8.03762H12.5001C12.0581 8.03762 11.6341 7.86202 11.3216 7.54946C11.009 7.2369 10.8334 6.81298 10.8334 6.37095V3.03762H6.25008C5.69755 3.03762 5.16764 3.25711 4.77694 3.64781C4.38624 4.03851 4.16675 4.56842 4.16675 5.12095V15.9543C4.16675 16.5068 4.38624 17.0367 4.77694 17.4274C5.16764 17.8181 5.69755 18.0376 6.25008 18.0376H13.7501C14.3026 18.0376 14.8325 17.8181 15.2232 17.4274C15.6139 17.0367 15.8334 16.5068 15.8334 15.9543Z" />
</g>
<defs>
<clipPath id="clip0_21_2950">
<rect width="20" height="20" transform="translate(0 0.537598)"/>
</clipPath>
</defs>
</svg>
