<svg width="14" height="14" viewBox="0 0 14 14" fill="none" xmlns="http://www.w3.org/2000/svg">
<g id="fi-rr-download" clip-path="url(#clip0_154_189119)">
<path id="Vector" d="M5.76238 10.5712C5.9249 10.7338 6.11786 10.8628 6.33026 10.9508C6.54265 11.0388 6.77031 11.0841 7.00021 11.0841C7.23012 11.0841 7.45778 11.0388 7.67017 10.9508C7.88256 10.8628 8.07553 10.7338 8.23805 10.5712L10.1111 8.69808C10.2116 8.58701 10.2654 8.44158 10.2616 8.29189C10.2577 8.14219 10.1965 7.99971 10.0905 7.89394C9.98448 7.78817 9.84188 7.72721 9.69218 7.72369C9.54248 7.72016 9.39715 7.77434 9.2863 7.875L7.57946 9.58242L7.58355 0.583333C7.58355 0.428624 7.52209 0.280251 7.41269 0.170854C7.3033 0.0614582 7.15492 0 7.00021 0V0C6.8455 0 6.69713 0.0614582 6.58773 0.170854C6.47834 0.280251 6.41688 0.428624 6.41688 0.583333L6.41163 9.57134L4.71413 7.875C4.60467 7.76562 4.45625 7.7042 4.30151 7.70426C4.14677 7.70431 3.99838 7.76584 3.889 7.87529C3.77963 7.98475 3.71821 8.13317 3.71826 8.28792C3.71832 8.44266 3.77984 8.59104 3.8893 8.70042L5.76238 10.5712Z" fill="#0D6EFD"/>
<path id="Vector_2" d="M13.4167 9.33325C13.262 9.33325 13.1136 9.39471 13.0042 9.50411C12.8948 9.6135 12.8333 9.76187 12.8333 9.91658V12.2499C12.8333 12.4046 12.7719 12.553 12.6625 12.6624C12.5531 12.7718 12.4047 12.8332 12.25 12.8332H1.75C1.59529 12.8332 1.44692 12.7718 1.33752 12.6624C1.22812 12.553 1.16667 12.4046 1.16667 12.2499V9.91658C1.16667 9.76187 1.10521 9.6135 0.995812 9.50411C0.886416 9.39471 0.738043 9.33325 0.583333 9.33325C0.428624 9.33325 0.280251 9.39471 0.170854 9.50411C0.0614582 9.6135 0 9.76187 0 9.91658L0 12.2499C0 12.714 0.184374 13.1592 0.512563 13.4873C0.840752 13.8155 1.28587 13.9999 1.75 13.9999H12.25C12.7141 13.9999 13.1592 13.8155 13.4874 13.4873C13.8156 13.1592 14 12.714 14 12.2499V9.91658C14 9.76187 13.9385 9.6135 13.8291 9.50411C13.7197 9.39471 13.5714 9.33325 13.4167 9.33325Z" fill="#0D6EFD"/>
</g>
<defs>
<clipPath id="clip0_154_189119">
<rect width="14" height="14" fill="white"/>
</clipPath>
</defs>
</svg>
