<svg width="20" height="21" viewBox="0 0 20 21" fill="none" xmlns="http://www.w3.org/2000/svg">
<g id="down">
<path id="shape" d="M12.5001 15.7019C12.6509 15.5511 12.7433 15.3416 12.743 15.1115L12.743 15.0102C12.743 14.5494 12.3699 14.1764 11.9097 14.177L7.3568 14.177L15.0586 6.47522C15.3838 6.14995 15.3838 5.62198 15.0585 5.29671C14.7333 4.97144 14.2053 4.97144 13.88 5.29671L6.17828 12.9985V8.44554C6.17828 7.98475 5.80525 7.61171 5.34504 7.6123H5.24376C4.78296 7.6123 4.40993 7.98534 4.41052 8.44554V15.1115C4.41052 15.5723 4.78355 15.9453 5.24376 15.9447L11.9097 15.9447C12.1401 15.9447 12.3493 15.8527 12.5001 15.7019Z" fill="#FF3B30"/>
</g>
</svg>
