<svg width="20" height="21" viewBox="0 0 20 21" xmlns="http://www.w3.org/2000/svg">
<g clip-path="url(#clip0_21_2901)">
<path d="M19.1456 7.78375L13.2406 1.87877C11.4494 0.0921689 8.55014 0.0921689 6.75893 1.87877L0.853945 7.78375C0.305196 8.32957 -0.00238139 9.07223 -0.000232961 9.84625V18.4946C0.00160297 19.6234 0.916757 20.5378 2.04562 20.5387H17.9539C19.0828 20.5378 19.9979 19.6234 19.9997 18.4946V9.84625C20.0019 9.07223 19.6943 8.32957 19.1456 7.78375ZM17.4997 18.0387H13.3331V15.3871C13.3331 13.6299 11.9086 12.2054 10.1514 12.2054H9.84811C8.09092 12.2054 6.66643 13.6299 6.66643 15.3871V18.0387H2.49976V9.84625C2.50004 9.73574 2.54371 9.62981 2.62144 9.55125L8.52643 3.64626C9.33991 2.83255 10.659 2.8324 11.4727 3.64587C11.4728 3.64599 11.473 3.64615 11.4731 3.64626L17.3781 9.55125C17.4558 9.62981 17.4995 9.73574 17.4998 9.84625V18.0387H17.4997Z" />
</g>
<defs>
<clipPath id="clip0_21_2901">
<rect width="20" height="20" transform="translate(0 0.537598)"/>
</clipPath>
</defs>
</svg>
