<svg width="20" height="21" viewBox="0 0 20 21" xmlns="http://www.w3.org/2000/svg">
<g clip-path="url(#clip0_21_2970)">
<path d="M10 0.537635C8.79444 0.534506 7.60027 0.771411 6.48716 1.23454C5.37406 1.69766 4.36428 2.37775 3.51671 3.23513C1.79548 4.97328 0.832829 7.32245 0.839389 9.76861C0.845948 12.2148 1.82119 14.5587 3.55171 16.2876L6.66671 19.1701C7.55175 20.042 8.74286 20.5328 9.98519 20.5377C11.2275 20.5425 12.4224 20.0609 13.3142 19.196L16.4867 16.2493C18.2025 14.5184 19.1651 12.1798 19.1651 9.74263C19.1651 7.30543 18.2025 4.96688 16.4867 3.23597C15.6388 2.37803 14.6285 1.69756 13.5148 1.23428C12.4011 0.770993 11.2063 0.534172 10 0.537635ZM14.75 14.4543L11.5834 17.3926C11.1523 17.8046 10.5777 18.0323 9.98147 18.0275C9.38524 18.0227 8.81436 17.7857 8.39004 17.3668L5.28838 14.4843C4.03763 13.2228 3.33586 11.5183 3.33586 9.7418C3.33586 7.96535 4.03763 6.26082 5.28838 4.9993C5.9055 4.37767 6.63953 3.8843 7.44818 3.54762C8.25683 3.21094 9.12411 3.03761 10 3.03761C10.876 3.03761 11.7433 3.21094 12.5519 3.54762C13.3606 3.8843 14.0946 4.37767 14.7117 4.9993C15.9605 6.25342 16.6648 7.94912 16.672 9.71893C16.6791 11.4887 15.9886 13.1901 14.75 14.4543ZM14.1667 8.97764V12.2043C14.1667 12.4253 14.0789 12.6373 13.9226 12.7936C13.7664 12.9498 13.5544 13.0376 13.3334 13.0376H12.5C12.279 13.0376 12.0671 12.9498 11.9108 12.7936C11.7545 12.6373 11.6667 12.4253 11.6667 12.2043V10.5376C11.6667 10.3166 11.5789 10.1047 11.4226 9.94838C11.2664 9.7921 11.0544 9.7043 10.8334 9.7043H9.16671C8.94569 9.7043 8.73373 9.7921 8.57745 9.94838C8.42117 10.1047 8.33338 10.3166 8.33338 10.5376V12.2043C8.33338 12.4253 8.24558 12.6373 8.0893 12.7936C7.93302 12.9498 7.72106 13.0376 7.50004 13.0376H6.66671C6.44569 13.0376 6.23373 12.9498 6.07745 12.7936C5.92117 12.6373 5.83338 12.4253 5.83338 12.2043V8.97764C5.83341 8.70851 5.89862 8.4434 6.02343 8.20497C6.14823 7.96653 6.32892 7.76187 6.55004 7.60847L9.05004 5.87347C9.32903 5.67992 9.66049 5.57621 10 5.57621C10.3396 5.57621 10.6711 5.67992 10.95 5.87347L13.45 7.60847C13.6712 7.76187 13.8519 7.96653 13.9767 8.20497C14.1015 8.4434 14.1667 8.70851 14.1667 8.97764Z" />
</g>
<defs>
<clipPath id="clip0_21_2970">
<rect width="20" height="20" transform="translate(0 0.537598)"/>
</clipPath>
</defs>
</svg>
