<svg width="16" height="17" viewBox="0 0 16 17" fill="none" xmlns="http://www.w3.org/2000/svg">
<path d="M11.3333 14.1663H4.66666C2.66666 14.1663 1.33333 13.1663 1.33333 10.833V6.16634C1.33333 3.83301 2.66666 2.83301 4.66666 2.83301H11.3333C13.3333 2.83301 14.6667 3.83301 14.6667 6.16634V10.833C14.6667 13.1663 13.3333 14.1663 11.3333 14.1663Z" stroke="#0D6EFD" stroke-width="1.5" stroke-miterlimit="10" stroke-linecap="round" stroke-linejoin="round"/>
<path d="M8 10.5C9.10457 10.5 10 9.60457 10 8.5C10 7.39543 9.10457 6.5 8 6.5C6.89543 6.5 6 7.39543 6 8.5C6 9.60457 6.89543 10.5 8 10.5Z" stroke="#0D6EFD" stroke-width="1.5" stroke-miterlimit="10" stroke-linecap="round" stroke-linejoin="round"/>
<path d="M1.33333 6.50033H1.99999C3.99999 6.50033 4.66666 5.83366 4.66666 3.83366V3.16699" stroke="#0D6EFD" stroke-width="1.5" stroke-miterlimit="10" stroke-linecap="round" stroke-linejoin="round"/>
<path d="M14.6667 6.50033H14C12 6.50033 11.3333 5.83366 11.3333 3.83366V3.16699" stroke="#0D6EFD" stroke-width="1.5" stroke-miterlimit="10" stroke-linecap="round" stroke-linejoin="round"/>
<path d="M1.33333 10.5H1.99999C3.99999 10.5 4.66666 11.1667 4.66666 13.1667V13.8333" stroke="#0D6EFD" stroke-width="1.5" stroke-miterlimit="10" stroke-linecap="round" stroke-linejoin="round"/>
<path d="M14.6667 10.5H14C12 10.5 11.3333 11.1667 11.3333 13.1667V13.8333" stroke="#0D6EFD" stroke-width="1.5" stroke-miterlimit="10" stroke-linecap="round" stroke-linejoin="round"/>
</svg>
