<svg width="16" height="16" viewBox="0 0 16 16" fill="none" xmlns="http://www.w3.org/2000/svg">
<g id="fi-rr-refresh" clip-path="url(#clip0_154_188875)">
<path id="Vector" d="M8.0003 1.33327C8.88464 1.33617 9.75962 1.51443 10.5746 1.85773C11.3896 2.20103 12.1284 2.70255 12.7483 3.33327H10.667C10.4902 3.33327 10.3206 3.40351 10.1956 3.52854C10.0705 3.65356 10.0003 3.82313 10.0003 3.99994C10.0003 4.17675 10.0705 4.34632 10.1956 4.47134C10.3206 4.59637 10.4902 4.66661 10.667 4.66661H13.429C13.7572 4.66643 14.072 4.53594 14.3042 4.30381C14.5363 4.07168 14.6668 3.75689 14.667 3.42861V0.666607C14.667 0.489796 14.5967 0.320226 14.4717 0.195202C14.3467 0.0701777 14.1771 -6.01644e-05 14.0003 -6.01644e-05C13.8235 -6.01644e-05 13.6539 0.0701777 13.5289 0.195202C13.4039 0.320226 13.3336 0.489796 13.3336 0.666607V2.05194C12.2317 1.05958 10.8754 0.393546 9.41636 0.128439C7.95737 -0.136668 6.45338 0.00961447 5.07282 0.550905C3.69226 1.0922 2.48964 2.00712 1.59964 3.19322C0.709636 4.37932 0.167392 5.78977 0.0336311 7.26661C0.02502 7.35945 0.0358416 7.45306 0.0654064 7.54149C0.0949712 7.62991 0.142631 7.71121 0.205349 7.7802C0.268067 7.84919 0.344467 7.90436 0.429683 7.94219C0.514899 7.98002 0.607061 7.99969 0.700298 7.99994C0.863356 8.00202 1.02132 7.94317 1.14327 7.8349C1.26522 7.72664 1.34237 7.57676 1.35963 7.41461C1.50804 5.75511 2.27161 4.21108 3.50035 3.08583C4.72909 1.96059 6.33418 1.33547 8.0003 1.33327Z" fill="#0D6EFD"/>
<path id="Vector_2" d="M15.3008 8.00018C15.1378 7.9981 14.9798 8.05695 14.8579 8.16521C14.7359 8.27347 14.6588 8.42335 14.6415 8.58551C14.5313 9.85434 14.0594 11.0649 13.2819 12.0737C12.5044 13.0824 11.4539 13.8469 10.2549 14.2766C9.05598 14.7062 7.75896 14.7829 6.51773 14.4976C5.2765 14.2123 4.14316 13.5769 3.25216 12.6669H5.3335C5.51031 12.6669 5.67988 12.5966 5.8049 12.4716C5.92992 12.3466 6.00016 12.177 6.00016 12.0002C6.00016 11.8234 5.92992 11.6538 5.8049 11.5288C5.67988 11.4038 5.51031 11.3335 5.3335 11.3335H2.5715C2.4089 11.3334 2.24787 11.3654 2.09763 11.4276C1.94739 11.4898 1.81088 11.5809 1.6959 11.6959C1.58093 11.8109 1.48974 11.9474 1.42755 12.0977C1.36537 12.2479 1.33341 12.4089 1.3335 12.5715V15.3335C1.3335 15.5103 1.40373 15.6799 1.52876 15.8049C1.65378 15.93 1.82335 16.0002 2.00016 16.0002C2.17697 16.0002 2.34654 15.93 2.47157 15.8049C2.59659 15.6799 2.66683 15.5103 2.66683 15.3335V13.9482C3.76872 14.9406 5.1251 15.6066 6.5841 15.8717C8.04309 16.1368 9.54708 15.9905 10.9276 15.4492C12.3082 14.9079 13.5108 13.993 14.4008 12.8069C15.2908 11.6208 15.8331 10.2104 15.9668 8.73351C15.9754 8.64067 15.9646 8.54706 15.9351 8.45863C15.9055 8.37021 15.8578 8.28891 15.7951 8.21992C15.7324 8.15093 15.656 8.09576 15.5708 8.05793C15.4856 8.02009 15.3934 8.00042 15.3002 8.00018H15.3008Z" fill="#0D6EFD"/>
</g>
<defs>
<clipPath id="clip0_154_188875">
<rect width="16" height="16" fill="white"/>
</clipPath>
</defs>
</svg>
