<svg width="20" height="21" viewBox="0 0 20 21" fill="none" xmlns="http://www.w3.org/2000/svg">
<g clip-path="url(#clip0_157_194871)">
<path d="M6.6679 18.0376H2.84204C2.65399 18.0371 2.50165 17.8848 2.50122 17.6968V3.37842C2.50169 3.19037 2.65399 3.03803 2.84204 3.0376H6.66786C7.35821 3.0376 7.91786 2.47795 7.91786 1.7876C7.91786 1.09725 7.35821 0.537598 6.66786 0.537598H2.84204C1.27388 0.539434 0.00305664 1.81025 0.0012207 3.37842V17.6967C0.00305664 19.2649 1.27388 20.5358 2.84204 20.5376H6.66786C7.35821 20.5376 7.91786 19.9779 7.91786 19.2876C7.91786 18.5972 7.35825 18.0376 6.6679 18.0376Z" fill="#6C7DA3"/>
<path d="M18.751 9.28833L7.38437 9.31083L10.2727 6.4225C10.761 5.93442 10.7612 5.1429 10.2731 4.65458C9.78503 4.16625 8.99351 4.16606 8.50519 4.65415L5.27269 7.88665C3.8082 9.3511 3.8082 11.7255 5.27265 13.1899L5.27269 13.19L8.50519 16.4225C8.99351 16.9106 9.78503 16.9104 10.2731 16.422C10.7612 15.9337 10.761 15.1422 10.2727 14.6541L7.42851 11.8108L18.751 11.7883C19.4414 11.787 19.9999 11.2262 19.9985 10.5358C19.9972 9.84547 19.4364 9.28696 18.746 9.28833H18.751Z" fill="#6C7DA3"/>
</g>
<defs>
<clipPath id="clip0_157_194871">
<rect width="20" height="20" fill="white" transform="translate(0 0.537598)"/>
</clipPath>
</defs>
</svg>
