<svg width="20" height="21" viewBox="0 0 20 21"  xmlns="http://www.w3.org/2000/svg">
<g clip-path="url(#clip0_21_2962)">
<path d="M9.54361 12.2199C5.99217 12.5409 3.28647 15.5418 3.33361 19.1074V19.2882C3.33361 19.9786 3.89326 20.5382 4.58361 20.5382C5.27397 20.5382 5.83361 19.9786 5.83361 19.2882V19.0574C5.79604 16.8681 7.41166 15.0012 9.58362 14.7241C11.8763 14.4967 13.9192 16.171 14.1466 18.4637C14.16 18.5993 14.1668 18.7354 14.1669 18.8716V19.2882C14.1669 19.9786 14.7266 20.5382 15.4169 20.5382C16.1073 20.5382 16.6669 19.9786 16.6669 19.2882V18.8715C16.6629 15.1855 13.6714 12.2007 9.98541 12.2047C9.83803 12.2049 9.69069 12.21 9.54361 12.2199Z" />
<path d="M10.0002 10.5376C12.7617 10.5376 15.0002 8.299 15.0002 5.5376C15.0002 2.77619 12.7617 0.537598 10.0002 0.537598C7.23884 0.537598 5.00024 2.77619 5.00024 5.5376C5.00298 8.29787 7.23997 10.5348 10.0002 10.5376ZM10.0002 3.0376C11.3809 3.0376 12.5002 4.15689 12.5002 5.5376C12.5002 6.9183 11.3809 8.0376 10.0002 8.0376C8.61954 8.0376 7.50024 6.9183 7.50024 5.5376C7.50024 4.15689 8.61954 3.0376 10.0002 3.0376Z" />
</g>
<defs>
<clipPath id="clip0_21_2962">
<rect width="20" height="20"  transform="translate(0 0.537598)"/>
</clipPath>
</defs>
</svg>
