<svg width="20" height="21" viewBox="0 0 20 21" fill="none" xmlns="http://www.w3.org/2000/svg">
<g id="fi-br-world" clip-path="url(#clip0_21_2982)">
<path id="Vector" d="M10 0.537598C8.02219 0.537598 6.08879 1.12409 4.4443 2.2229C2.79981 3.32172 1.51809 4.8835 0.761209 6.71076C0.00433286 8.53802 -0.193701 10.5487 0.192152 12.4885C0.578004 14.4283 1.53041 16.2101 2.92894 17.6087C4.32746 19.0072 6.10929 19.9596 8.0491 20.3455C9.98891 20.7313 11.9996 20.5333 13.8268 19.7764C15.6541 19.0195 17.2159 17.7378 18.3147 16.0933C19.4135 14.4488 20 12.5154 20 10.5376C19.9971 7.88631 18.9426 5.34444 17.0679 3.4697C15.1932 1.59495 12.6513 0.540465 10 0.537598V0.537598ZM10.4167 18.0168V16.9459C10.4167 16.0199 10.0488 15.1318 9.39399 14.477C8.73917 13.8221 7.85105 13.4543 6.925 13.4543H6.91667C6.57261 13.4543 6.23192 13.3865 5.91406 13.2548C5.59621 13.1231 5.30741 12.9301 5.06417 12.6868L2.52 10.1409C2.58796 8.81705 3.00618 7.53495 3.73191 6.42564C4.45764 5.31632 5.46487 4.41957 6.65068 3.827C7.83648 3.23444 9.15835 2.96731 10.4812 3.05292C11.8041 3.13853 13.0805 3.5738 14.18 4.31426C13.9593 4.4762 13.6929 4.56376 13.4192 4.56426H12.2242C12.0538 4.56426 11.8851 4.59786 11.7277 4.66314C11.5703 4.72842 11.4274 4.82409 11.307 4.94469C11.1866 5.06528 11.0912 5.20843 11.0263 5.36594C10.9613 5.52344 10.928 5.69222 10.9283 5.8626V6.73093C10.9283 7.07461 10.7918 7.40421 10.5488 7.64722C10.3058 7.89024 9.97618 8.02676 9.6325 8.02676C9.46205 8.02633 9.29319 8.05952 9.13559 8.12445C8.97798 8.18937 8.83474 8.28475 8.71406 8.40513C8.59337 8.5255 8.49763 8.6685 8.43229 8.82593C8.36697 8.98337 8.33334 9.15215 8.33334 9.3226V10.1909C8.33334 10.5346 8.46986 10.8642 8.71288 11.1072C8.95589 11.3502 9.28549 11.4868 9.62917 11.4868H13.0925C13.4362 11.4868 13.7658 11.6233 14.0088 11.8663C14.2518 12.1093 14.3883 12.4389 14.3883 12.7826V14.0493C14.3883 14.2195 14.4219 14.3881 14.4871 14.5454C14.5523 14.7027 14.6479 14.8456 14.7683 14.9659L15.4625 15.6601C14.1472 17.0667 12.3395 17.911 10.4167 18.0168Z" fill="#6C7DA3"/>
</g>
<defs>
<clipPath id="clip0_21_2982">
<rect width="20" height="20" fill="white" transform="translate(0 0.537598)"/>
</clipPath>
</defs>
</svg>
